<?xml version="1.0"?>
<svg xmlns="http://www.w3.org/2000/svg" height="512px" viewBox="0 0 496 496" width="512px"><g><path d="m488 448h-8v-280c0-4.425781-3.574219-8-8-8h-8v-72c0-4.425781-3.574219-8-8-8h-10.585938l-29.980468-74.96875c-1.226563-3.039062-4.160156-5.03125-7.433594-5.03125s-6.207031 1.992188-7.433594 5.03125l-29.980468 74.96875h-10.585938c-4.425781 0-8 3.574219-8 8v72h-8c-4.425781 0-8 3.574219-8 8v49.054688l-80-53.335938v-35.71875h56c2.953125 0 5.664062-1.625 7.054688-4.222656 1.394531-2.601563 1.234374-5.761719-.398438-8.210938l-13.039062-19.566406 13.039062-19.558594c1.632812-2.457031 1.792969-5.609375.398438-8.210937-1.390626-2.597657-4.101563-4.230469-7.054688-4.230469h-56v-16h-16v115.71875l-80 53.335938v-49.054688c0-4.425781-3.574219-8-8-8h-8v-72c0-4.425781-3.574219-8-8-8h-10.585938l-29.980468-74.96875c-1.226563-3.039062-4.160156-5.03125-7.433594-5.03125s-6.207031 1.992188-7.433594 5.03125l-29.980468 74.96875h-10.585938c-4.425781 0-8 3.574219-8 8v72h-8c-4.425781 0-8 3.574219-8 8v280h-8c-4.425781 0-8 3.574219-8 8v32c0 4.425781 3.574219 8 8 8h480c4.425781 0 8-3.574219 8-8v-32c0-4.425781-3.574219-8-8-8zm-40-288h-16v-64h16zm-48-48h16v48h-16zm8-82.464844 20.183594 50.464844h-4.183594c-4.425781 0-8 3.574219-8 8v8h-16v-8c0-4.425781-3.574219-8-8-8h-4.183594zm-40 66.464844h16v64h-16zm-16 80h112v272h-112zm-32 272v-56c0-4.425781-3.574219-8-8-8h-32c-4.425781 0-8 3.574219-8 8v56h-48v-56c0-4.425781-3.574219-8-8-8h-32c-4.425781 0-8 3.574219-8 8v56h-16v-128h176v128zm-16 0h-16v-48h16zm-96 0h-16v-48h16zm128-144h-176v-32h176zm-38.945312-224-7.710938 11.558594c-1.792969 2.6875-1.792969 6.183594 0 8.875l7.710938 11.566406h-41.054688v-32zm-49.054688 97.617188 88 58.664062v19.71875h-176v-19.71875zm-120-17.617188h-16v-64h16zm-48-48h16v48h-16zm8-82.464844 20.183594 50.464844h-4.183594c-4.425781 0-8 3.574219-8 8v8h-16v-8c0-4.425781-3.574219-8-8-8h-4.183594zm-40 66.464844h16v64h-16zm-16 80h112v272h-112zm448 304h-464v-16h464zm0 0" data-original="#000000" class="active-path" data-old_color="#000000" fill="#0663FF"/><path d="m56 240h32c4.425781 0 8-3.574219 8-8v-32c0-4.425781-3.574219-8-8-8h-32c-4.425781 0-8 3.574219-8 8v32c0 4.425781 3.574219 8 8 8zm8-32h16v16h-16zm0 0" data-original="#000000" class="active-path" data-old_color="#000000" fill="#0663FF"/><path d="m120 256h-32c-4.425781 0-8 3.574219-8 8v32c0 4.425781 3.574219 8 8 8h32c4.425781 0 8-3.574219 8-8v-32c0-4.425781-3.574219-8-8-8zm-8 32h-16v-16h16zm0 0" data-original="#000000" class="active-path" data-old_color="#000000" fill="#0663FF"/><path d="m112 192h16v48h-16zm0 0" data-original="#000000" class="active-path" data-old_color="#000000" fill="#0663FF"/><path d="m48 256h16v48h-16zm0 0" data-original="#000000" class="active-path" data-old_color="#000000" fill="#0663FF"/><path d="m56 368h32c4.425781 0 8-3.574219 8-8v-32c0-4.425781-3.574219-8-8-8h-32c-4.425781 0-8 3.574219-8 8v32c0 4.425781 3.574219 8 8 8zm8-32h16v16h-16zm0 0" data-original="#000000" class="active-path" data-old_color="#000000" fill="#0663FF"/><path d="m120 384h-32c-4.425781 0-8 3.574219-8 8v32c0 4.425781 3.574219 8 8 8h32c4.425781 0 8-3.574219 8-8v-32c0-4.425781-3.574219-8-8-8zm-8 32h-16v-16h16zm0 0" data-original="#000000" class="active-path" data-old_color="#000000" fill="#0663FF"/><path d="m112 320h16v48h-16zm0 0" data-original="#000000" class="active-path" data-old_color="#000000" fill="#0663FF"/><path d="m48 384h16v48h-16zm0 0" data-original="#000000" class="active-path" data-old_color="#000000" fill="#0663FF"/><path d="m376 240h32c4.425781 0 8-3.574219 8-8v-32c0-4.425781-3.574219-8-8-8h-32c-4.425781 0-8 3.574219-8 8v32c0 4.425781 3.574219 8 8 8zm8-32h16v16h-16zm0 0" data-original="#000000" class="active-path" data-old_color="#000000" fill="#0663FF"/><path d="m440 256h-32c-4.425781 0-8 3.574219-8 8v32c0 4.425781 3.574219 8 8 8h32c4.425781 0 8-3.574219 8-8v-32c0-4.425781-3.574219-8-8-8zm-8 32h-16v-16h16zm0 0" data-original="#000000" class="active-path" data-old_color="#000000" fill="#0663FF"/><path d="m432 192h16v48h-16zm0 0" data-original="#000000" class="active-path" data-old_color="#000000" fill="#0663FF"/><path d="m368 256h16v48h-16zm0 0" data-original="#000000" class="active-path" data-old_color="#000000" fill="#0663FF"/><path d="m376 368h32c4.425781 0 8-3.574219 8-8v-32c0-4.425781-3.574219-8-8-8h-32c-4.425781 0-8 3.574219-8 8v32c0 4.425781 3.574219 8 8 8zm8-32h16v16h-16zm0 0" data-original="#000000" class="active-path" data-old_color="#000000" fill="#0663FF"/><path d="m440 384h-32c-4.425781 0-8 3.574219-8 8v32c0 4.425781 3.574219 8 8 8h32c4.425781 0 8-3.574219 8-8v-32c0-4.425781-3.574219-8-8-8zm-8 32h-16v-16h16zm0 0" data-original="#000000" class="active-path" data-old_color="#000000" fill="#0663FF"/><path d="m432 320h16v48h-16zm0 0" data-original="#000000" class="active-path" data-old_color="#000000" fill="#0663FF"/><path d="m368 384h16v48h-16zm0 0" data-original="#000000" class="active-path" data-old_color="#000000" fill="#0663FF"/><path d="m248 240c13.230469 0 24-10.769531 24-24s-10.769531-24-24-24-24 10.769531-24 24 10.769531 24 24 24zm0-32c4.414062 0 8 3.585938 8 8s-3.585938 8-8 8-8-3.585938-8-8 3.585938-8 8-8zm0 0" data-original="#000000" class="active-path" data-old_color="#000000" fill="#0663FF"/><path d="m176 336h16v32h-16zm0 0" data-original="#000000" class="active-path" data-old_color="#000000" fill="#0663FF"/><path d="m208 336h16v32h-16zm0 0" data-original="#000000" class="active-path" data-old_color="#000000" fill="#0663FF"/><path d="m272 336h16v32h-16zm0 0" data-original="#000000" class="active-path" data-old_color="#000000" fill="#0663FF"/><path d="m304 336h16v32h-16zm0 0" data-original="#000000" class="active-path" data-old_color="#000000" fill="#0663FF"/><path d="m240 336h16v32h-16zm0 0" data-original="#000000" class="active-path" data-old_color="#000000" fill="#0663FF"/></g> </svg>
