<?xml version="1.0"?>
<svg xmlns="http://www.w3.org/2000/svg" xmlns:xlink="http://www.w3.org/1999/xlink" version="1.1" id="Capa_1" x="0px" y="0px" width="512px" height="512px" viewBox="0 0 50.778 50.779" style="enable-background:new 0 0 50.778 50.779;" xml:space="preserve"><g transform="matrix(-1 0 0 1 50.778 0)"><g>
	<g>
		<path d="M50.766,11.825c0.028-0.081,0.01-0.149-0.055-0.206c-0.243-0.162-0.484-0.325-0.729-0.487    c-0.008-0.006-0.022-0.006-0.031-0.011c-0.064-0.062-0.208-0.102-0.475-0.102c-3.443,0-6.887,0-10.33,0    c-1.623,0-3.612-0.351-4.881,0.919c-2.828,2.828-5.654,5.656-8.481,8.484c-1.105,1.107-5.361,3.965-4.582,5.852    c0.86,2.082,4.379,4.414,5.944,5.98c2.432,2.434,4.861,4.864,7.293,7.297c1.402,1.404,6.951,0.346,8.638,0.346    c2.526,0,5.312,0.596,7.485-0.863c0.106-0.07,0.238-0.205,0.209-0.349c-0.438-2.199-3.351-4.072-4.867-5.592    c-2.445-2.445-4.891-4.894-7.336-7.34C37.258,24.439,50.27,14.319,50.766,11.825z M49.212,38.799    c0.108,0.094,0.099,0.138-0.114,0.153C49.145,38.905,49.175,38.852,49.212,38.799z M46.361,38.49    c0.216-0.594,0.431-1.188,0.645-1.782c0.25,0.25,0.499,0.5,0.748,0.749c-0.169,0.357-0.34,0.713-0.51,1.069    c-0.078,0.163-0.086,0.308-0.064,0.438c-0.383,0-0.765,0-1.146,0C46.175,38.824,46.298,38.667,46.361,38.49z M44.161,17.418    c0.212-0.321,0.302-0.385,0.265-0.232c-0.109,0.11-0.22,0.22-0.33,0.33C44.118,17.482,44.139,17.451,44.161,17.418z     M23.953,26.544c-0.229-0.23-0.46-0.46-0.69-0.689c-1.045-1.045,2.406-3.602,2.999-4.193c0.439-0.439,0.879-0.878,1.317-1.317    c-0.562,0.987-1.122,1.974-1.688,2.959c-0.628,1-1.242,2.009-1.855,3.02C23.996,26.39,23.98,26.47,23.953,26.544z M26.966,29.262    c-0.039,0.065-0.055,0.144-0.08,0.218c-0.528-0.53-1.059-1.061-1.588-1.589c0.048-0.053,0.102-0.092,0.14-0.158    c0.863-1.495,1.726-2.99,2.585-4.486c2.084-3.321,4.254-6.589,6.472-9.822c0.208-0.208,0.416-0.416,0.624-0.624    c0.703-0.702,1.415-0.851,0.48-0.851c0.728,0,1.455,0,2.184,0c-0.145,0.115-0.273,0.24-0.361,0.379    c-2.508,3.926-5.07,7.821-7.449,11.81C28.958,25.836,27.961,27.547,26.966,29.262z M28.243,30.836    c-0.031-0.03-0.062-0.062-0.093-0.092c0.047-0.052,0.101-0.093,0.139-0.16c1.924-3.334,3.873-6.65,5.882-9.922    c1.72-2.803,3.507-5.566,5.278-8.336c0.088-0.138,0.119-0.263,0.123-0.378c0.105,0,0.211,0,0.316,0    c-0.144,0.118-0.272,0.246-0.359,0.388c-3.734,6.093-7.459,12.191-11.2,18.28C28.289,30.685,28.27,30.763,28.243,30.836z     M33.275,35.873c-0.271-0.271-0.543-0.543-0.813-0.813c0.054-0.052,0.113-0.093,0.157-0.159c1.677-2.537,3.354-5.074,5.027-7.614    v-0.001c0.194,0.23,0.414,0.475,0.685,0.744c-1.603,2.572-3.25,5.116-4.955,7.623C33.331,35.72,33.307,35.797,33.275,35.873z     M43.958,38.965c0.065-0.066,0.097-0.066,0.086,0C44.016,38.965,43.986,38.965,43.958,38.965z M44.956,34.656    c-0.839,1.294-1.702,2.585-2.606,3.863c-0.318,0.451-0.375,0.415-0.119-0.075c0.742-1.424,1.494-2.844,2.252-4.262    C44.641,34.34,44.797,34.499,44.956,34.656z M39.793,29.49c1.004,1.005,2.008,2.01,3.012,3.015    c-1.152,2.015-2.299,4.032-3.437,6.054c-0.085,0.149-0.104,0.284-0.099,0.407c-0.867,0-1.733,0-2.602,0    c-0.65,0-1.541-0.989-2.236-1.813c0.082-0.062,0.163-0.127,0.23-0.22C36.434,34.488,38.158,32.014,39.793,29.49z M36.188,24.848    c-1.025,1.828-2.049,3.649-3.105,5.426c-0.637,1.071-1.262,2.147-1.88,3.229c-0.038,0.067-0.054,0.145-0.078,0.218    c-0.546-0.547-1.091-1.093-1.638-1.639c0.051-0.051,0.105-0.093,0.146-0.16c4.01-6.519,7.993-13.056,11.989-19.583    c0.087-0.143,0.114-0.271,0.114-0.389c0.49,0,0.98,0,1.471,0c-0.146,0.128-0.275,0.268-0.357,0.424    C40.677,16.559,38.469,20.725,36.188,24.848z" data-original="#000000" class="active-path" data-old_color="#000000" fill="#007BFF"/>
		<path d="M17.249,24.917c2.395-2.398,4.79-4.794,7.185-7.19c1.63-1.631,4.511-3.47,4.98-5.839c0.037-0.187-0.079-0.356-0.227-0.453    c-2.455-1.645-7.118-0.619-9.92-0.619c-2.196,0-4.835-0.612-6.524,1.077c-3.164,3.165-6.327,6.33-9.491,9.495    c-1.542,1.543-4.417,3.316-2.746,5.638c2.119,2.94,5.46,5.462,8.019,8.021c1.306,1.308,3.743,5.053,5.911,5.053    c3.936,0,7.872,0,11.808,0c2.135,0,4.426-0.979,2.23-3.11C27.146,35.659,16.403,25.764,17.249,24.917z M19.475,30.586    c-0.742,1.212-1.483,2.427-2.227,3.638c-0.289,0.471-0.301,0.464-0.025-0.016c0.715-1.241,1.435-2.481,2.158-3.717    C19.411,30.523,19.443,30.555,19.475,30.586z M24.144,15.9L24.144,15.9c0.828-1.201,1.643-2.413,2.487-3.603    c0.037-0.052,0.044-0.097,0.066-0.145c0.275,0,0.549,0,0.822,0C27.342,12.152,24.46,15.583,24.144,15.9    C24.144,15.9,24.143,15.901,24.144,15.9C24.143,15.901,24.143,15.9,24.144,15.9z M4.76,28.674c-0.65-0.649-1.3-1.301-1.951-1.95    c0.045-0.051,0.092-0.091,0.134-0.148c1.975-2.732,3.831-5.55,5.639-8.403c0.765-0.765,1.53-1.53,2.295-2.296    c0.483-0.484,1.9-2.021,2.825-2.962c-2.953,5.195-5.928,10.378-8.878,15.575C4.792,28.545,4.782,28.613,4.76,28.674z     M10.461,34.125c-0.033,0.058-0.044,0.124-0.067,0.188c-1.097-1.099-2.193-2.195-3.29-3.293c0.04-0.045,0.088-0.077,0.122-0.135    c3.627-6.117,7.02-12.394,10.597-18.538c0.04-0.069,0.048-0.13,0.068-0.194c1.73,0,3.461,0,5.192,0    c-0.058,0.071-0.123,0.14-0.163,0.216c-1.884,3.567-3.853,7.094-5.847,10.609c-1.225,1.234-1.863,1.984-1.648,2.912    c-0.034,0.061-0.068,0.12-0.102,0.181C13.653,28.727,12.041,31.416,10.461,34.125z M13.467,37.139    c-0.039,0.067-0.057,0.146-0.083,0.22c-0.201-0.229-0.405-0.46-0.62-0.675c-0.315-0.315-0.63-0.632-0.946-0.946    c0.039-0.045,0.085-0.076,0.117-0.133c1.525-2.664,3.062-5.324,4.594-7.985c0.145,0.157,0.301,0.321,0.476,0.496    c0.354,0.354,0.708,0.708,1.062,1.062C16.511,31.815,14.98,34.472,13.467,37.139z M19.284,38.573    c-0.041,0.066-0.048,0.126-0.069,0.189c-0.898,0-1.797,0-2.695,0c0.049-0.062,0.103-0.117,0.143-0.183    c1.377-2.226,2.75-4.454,4.119-6.685c0.505,0.505,1.01,1.011,1.515,1.517c-0.844,1.427-1.678,2.862-2.497,4.303    C19.628,38,19.457,38.287,19.284,38.573z M22.681,38.604c-0.038,0.056-0.046,0.104-0.069,0.156c-0.426,0-0.852,0-1.278,0    c0.015-0.026,0.03-0.054,0.045-0.08c0.821-1.241,1.641-2.483,2.46-3.726c0.256,0.257,0.513,0.513,0.768,0.771    C23.975,36.69,23.333,37.65,22.681,38.604z M27.006,38.762c-0.757,0-1.514,0-2.271,0c0.046-0.05,0.103-0.094,0.14-0.146    c0.365-0.511,0.728-1.023,1.088-1.537c0.246,0.247,0.492,0.493,0.738,0.739C27.277,38.378,28.223,38.762,27.006,38.762z" data-original="#000000" class="active-path" data-old_color="#000000" fill="#007BFF"/>
	</g>
</g></g> </svg>
