<?xml version="1.0"?>
<svg xmlns="http://www.w3.org/2000/svg" viewBox="0 0 64 64" width="512px" height="512px"><g><g id="Contact-3" data-name="Contact"><path d="M43,2C32.523,2,24,8.729,24,17c0,5.673,4.07,10.851,10.444,13.388l-1.421,6.4A1,1,0,0,0,34.6,37.8l7.761-5.821c.212.011.424.021.639.021,10.477,0,19-6.729,19-15S53.477,2,43,2Zm0,28c-.2,0-.4-.011-.591-.021l-.319-.015a1.039,1.039,0,0,0-.64.2l-5.888,4.415,1.024-4.605a1,1,0,0,0-.646-1.161C29.9,26.692,26,22.056,26,17,26,9.832,33.626,4,43,4S60,9.832,60,17,52.374,30,43,30Z" data-original="#000000" class="active-path" data-old_color="#000000" fill="#007BFF"/><rect x="32" y="16" width="22" height="2" data-original="#000000" class="active-path" data-old_color="#000000" fill="#007BFF"/><rect x="32" y="12" width="22" height="2" data-original="#000000" class="active-path" data-old_color="#000000" fill="#007BFF"/><rect x="32" y="20" width="22" height="2" data-original="#000000" class="active-path" data-old_color="#000000" fill="#007BFF"/><path d="M26.843,47.825,21,46.236V45.05A9,9,0,0,0,26,37V36a1,1,0,0,0,1-1V32A10,10,0,0,0,7,32v3a1,1,0,0,0,1,1v1a9,9,0,0,0,5,8.05v1.186l-5.846,1.59A7.03,7.03,0,0,0,2,54.58V61a1,1,0,0,0,1,1H31a1,1,0,0,0,1-1V54.58A7.031,7.031,0,0,0,26.843,47.825ZM11,48.852l1.4-.38,3.6,3V54h2V51.469l3.6-3,1.4.38v1.734l-6,6-6-6ZM9,32a8,8,0,0,1,16,0v1.951a4.969,4.969,0,0,1-3.764-2.715l-.341-.683a1,1,0,0,0-1.6-.26L17.636,31.95A6.954,6.954,0,0,1,12.687,34H9Zm1,5V36h2.687a8.937,8.937,0,0,0,6.363-2.636l.7-.7A6.943,6.943,0,0,0,24,35.787V37a7,7,0,0,1-14,0Zm7,9a8.971,8.971,0,0,0,2-.232V47a.989.989,0,0,0,.349.743L17,49.7l-2.349-1.956A.989.989,0,0,0,15,47V45.768A8.971,8.971,0,0,0,17,46ZM30,60H4V54.58a5.024,5.024,0,0,1,3.683-4.825L9,49.4V51a1,1,0,0,0,.293.707l7,7a1,1,0,0,0,1.414,0l7-7A1,1,0,0,0,25,51V49.4l1.314.358A5.026,5.026,0,0,1,30,54.58Z" data-original="#000000" class="active-path" data-old_color="#000000" fill="#007BFF"/><path d="M21,38H19a2,2,0,0,1-4,0H13a4,4,0,0,0,8,0Z" data-original="#000000" class="active-path" data-old_color="#000000" fill="#007BFF"/></g></g> </svg>
