<?xml version="1.0"?>
<svg xmlns="http://www.w3.org/2000/svg" height="512px" viewBox="0 0 512 512" width="512px"><g><path d="m101.039062 406.484375-17.375-35.207031-17.375 35.207031-38.851562 5.644531 28.113281 27.40625-6.636719 38.691406 34.75-18.265624 34.75 18.265624-6.636718-38.691406 28.113281-27.40625zm-2.585937 44.269531-14.789063-7.773437-14.789062 7.773437 2.824219-16.46875-11.964844-11.660156 16.535156-2.402344 7.394531-14.984375 7.394532 14.984375 16.535156 2.402344-11.964844 11.660156zm0 0" data-original="#000000" class="active-path" data-old_color="#000000" fill="#0663FF"/><path d="m339.164062 262.511719c15.191407 0 27.550782-12.359375 27.550782-27.554688 0-15.191406-12.359375-27.550781-27.550782-27.550781-15.195312 0-27.554687 12.359375-27.554687 27.550781 0 15.195313 12.359375 27.554688 27.554687 27.554688zm0-40.078125c6.90625 0 12.523438 5.617187 12.523438 12.523437 0 6.910157-5.617188 12.527344-12.523438 12.527344s-12.527343-5.617187-12.527343-12.527344c0-6.90625 5.621093-12.523437 12.527343-12.523437zm0 0" data-original="#000000" class="active-path" data-old_color="#000000" fill="#0663FF"/><path d="m496.96875 496.96875h-165.320312v-60.769531l139.203124-156.9375c4.8125-5.425781 7.460938-12.398438 7.460938-19.632813 0-9.492187-4.589844-18.472656-12.277344-24.023437-5.078125-3.667969-11.070312-5.605469-17.324218-5.605469-8.511719 0-16.617188 3.660156-22.238282 10.042969l-38 43.171875 11.28125 9.929687 38-43.167969c2.765625-3.144531 6.761719-4.949218 10.957032-4.949218 3.078124 0 6.027343.957031 8.527343 2.761718 3.84375 2.777344 6.046875 7.089844 6.046875 11.839844 0 3.558594-1.308594 6.988282-3.675781 9.660156l-84.980469 95.804688-22.003906-18.410156 37.199219-42.257813-11.28125-9.929687-61.8125 70.214844h-31.171875v-18.132813c13.898437-9.476563 23.042968-25.429687 23.042968-43.484375v-22.042969c0-29.007812-23.597656-52.605469-52.601562-52.605469s-52.601562 23.597657-52.601562 52.605469v22.042969c0 18.054688 9.144531 34.007812 23.042968 43.484375v18.132813h-31.171875l-61.808593-70.214844-11.28125 9.929687 37.195312 42.253907-22.003906 18.414062-84.980469-95.804688c-2.367187-2.671874-3.671875-6.101562-3.671875-9.660156 0-4.75 2.203125-9.066406 6.046875-11.839844 2.5-1.804687 5.449219-2.761718 8.527344-2.761718 4.195312 0 8.1875 1.804687 10.957031 4.949218l38 43.167969 11.28125-9.929687-38-43.171875c-5.621094-6.382813-13.726562-10.042969-22.238281-10.042969-6.257813 0-12.25 1.9375-17.328125 5.605469-7.6875 5.550781-12.273438 14.53125-12.273438 24.023437 0 7.238282 2.648438 14.210938 7.457032 19.632813l139.203124 156.9375v60.769531h-165.320312v-61.617188h-15.03125v76.648438h512v-263.015625h-15.03125zm-240.96875-253.492188c20.71875 0 37.574219 16.855469 37.574219 37.574219v8.367188l-15.800781-20.894531h-57.191407c5.167969-14.578126 19.089844-25.046876 35.417969-25.046876zm-37.574219 59.617188v-19.539062h51.871094l22.03125 29.136718c-4.253906 16.082032-18.925781 27.972656-36.328125 27.972656-20.71875 0-37.574219-16.855468-37.574219-37.570312zm37.574219 52.601562c5.039062 0 9.910156-.726562 14.527344-2.058593v16.164062c-3.527344 4.371094-8.820313 6.933594-14.527344 6.933594s-10.996094-2.5625-14.527344-6.933594v-16.164062c4.617188 1.332031 9.488282 2.058593 14.527344 2.058593zm-108.652344 20.644532 21.960938-18.375 19.167968 21.777344h41.699219c6.363281 7.59375 15.742188 12.023437 25.824219 12.023437s19.460938-4.429687 25.824219-12.023437h41.695312l19.171875-21.777344 21.960938 18.375-48.035156 54.152344v66.476562h-121.234376v-66.476562zm0 0" data-original="#000000" class="active-path" data-old_color="#000000" fill="#0663FF"/><path d="m463.90625 40.078125v-12.523437c0-15.195313-12.359375-27.554688-27.554688-27.554688-15.191406 0-27.554687 12.359375-27.554687 27.554688v12.523437h-35.066406v-12.523437c0-15.195313-12.363281-27.554688-27.554688-27.554688-15.191406 0-27.554687 12.359375-27.554687 27.554688v12.523437h-35.066406v-12.523437c0-15.195313-12.363282-27.554688-27.554688-27.554688-15.195312 0-27.554688 12.359375-27.554688 27.554688v12.523437h-35.066406v-12.523437c0-15.195313-12.363281-27.554688-27.554687-27.554688-15.195313 0-27.554688 12.359375-27.554688 27.554688v12.523437h-35.066406v-12.523437c0-15.195313-12.363281-27.554688-27.554687-27.554688-15.195313 0-27.554688 12.359375-27.554688 27.554688v12.523437h-48.09375v380.242187h15.03125v-254.996093h353.1875v-15.03125h-353.1875v-95.183594h33.0625v12.523437c0 15.191407 12.359375 27.554688 27.554688 27.554688 15.191406 0 27.554687-12.363281 27.554687-27.554688v-12.523437h35.066406v12.523437c0 15.191407 12.359375 27.554688 27.554688 27.554688 15.191406 0 27.554687-12.363281 27.554687-27.554688v-12.523437h35.066406v12.523437c0 15.191407 12.359376 27.554688 27.554688 27.554688 15.191406 0 27.554688-12.363281 27.554688-27.554688v-12.523437h35.066406v12.523437c0 15.191407 12.363281 27.554688 27.554687 27.554688 15.191407 0 27.554688-12.363281 27.554688-27.554688v-12.523437h35.066406v12.523437c0 15.191407 12.363281 27.554688 27.554687 27.554688 15.195313 0 27.554688-12.363281 27.554688-27.554688v-12.523437h33.0625v95.183594h-113.71875v15.03125h113.71875v68.632812h15.03125v-193.878906zm-375.734375 27.554687c0 6.90625-5.617187 12.523438-12.523437 12.523438s-12.523438-5.617188-12.523438-12.523438v-40.078124c0-6.90625 5.617188-12.523438 12.523438-12.523438s12.523437 5.617188 12.523437 12.523438zm90.175781 0c0 6.90625-5.617187 12.523438-12.523437 12.523438s-12.523438-5.617188-12.523438-12.523438v-40.078124c0-6.90625 5.617188-12.523438 12.523438-12.523438s12.523437 5.617188 12.523437 12.523438zm90.175782 0c0 6.90625-5.617188 12.523438-12.523438 12.523438s-12.523438-5.617188-12.523438-12.523438v-40.078124c0-6.90625 5.617188-12.523438 12.523438-12.523438s12.523438 5.617188 12.523438 12.523438zm90.175781 0c0 6.90625-5.617188 12.523438-12.523438 12.523438s-12.523437-5.617188-12.523437-12.523438v-40.078124c0-6.90625 5.617187-12.523438 12.523437-12.523438s12.523438 5.617188 12.523438 12.523438zm90.175781 0c0 6.90625-5.617188 12.523438-12.523438 12.523438s-12.523437-5.617188-12.523437-12.523438v-40.078124c0-6.90625 5.617187-12.523438 12.523437-12.523438s12.523438 5.617188 12.523438 12.523438zm0 0" data-original="#000000" class="active-path" data-old_color="#000000" fill="#0663FF"/><path d="m293.574219 130.253906h-15.03125v-15.027344h15.03125zm-30.058594 0h-15.03125v-15.027344h15.03125zm-30.058594 0h-15.03125v-15.027344h15.03125zm0 0" data-original="#000000" class="active-path" data-old_color="#000000" fill="#0663FF"/><path d="m148.289062 205.402344h15.03125v15.027344h-15.03125zm0 0" data-original="#000000" class="active-path" data-old_color="#000000" fill="#0663FF"/><path d="m148.289062 255.5h15.03125v15.027344h-15.03125zm0 0" data-original="#000000" class="active-path" data-old_color="#000000" fill="#0663FF"/><path d="m123.242188 230.449219h15.027343v15.03125h-15.027343zm0 0" data-original="#000000" class="active-path" data-old_color="#000000" fill="#0663FF"/><path d="m173.339844 230.449219h15.027344v15.03125h-15.027344zm0 0" data-original="#000000" class="active-path" data-old_color="#000000" fill="#0663FF"/><path d="m415.8125 392.765625h15.027344v15.03125h-15.027344zm0 0" data-original="#000000" class="active-path" data-old_color="#000000" fill="#0663FF"/><path d="m415.8125 442.863281h15.027344v15.03125h-15.027344zm0 0" data-original="#000000" class="active-path" data-old_color="#000000" fill="#0663FF"/><path d="m390.761719 417.816406h15.03125v15.027344h-15.03125zm0 0" data-original="#000000" class="active-path" data-old_color="#000000" fill="#0663FF"/><path d="m440.859375 417.816406h15.03125v15.027344h-15.03125zm0 0" data-original="#000000" class="active-path" data-old_color="#000000" fill="#0663FF"/><path d="m381.746094 227.445312h15.027344v15.027344h-15.027344zm0 0" data-original="#000000" class="active-path" data-old_color="#000000" fill="#0663FF"/><path d="m331.648438 177.347656h15.027343v15.027344h-15.027343zm0 0" data-original="#000000" class="active-path" data-old_color="#000000" fill="#0663FF"/><path d="m331.648438 277.542969h15.027343v15.027343h-15.027343zm0 0" data-original="#000000" class="active-path" data-old_color="#000000" fill="#0663FF"/><path d="m363.957031 199.535156 10.625-10.625 10.628907 10.625-10.628907 10.628906zm0 0" data-original="#000000" class="active-path" data-old_color="#000000" fill="#0663FF"/><path d="m293.109375 199.550781 10.628906-10.628906 10.625 10.628906-10.625 10.628907zm0 0" data-original="#000000" class="active-path" data-old_color="#000000" fill="#0663FF"/><path d="m363.957031 270.40625 10.628907-10.628906 10.625 10.628906-10.625 10.625zm0 0" data-original="#000000" class="active-path" data-old_color="#000000" fill="#0663FF"/></g> </svg>
