<?xml version="1.0" encoding="UTF-8"?>
<svg xmlns="http://www.w3.org/2000/svg" xmlns:xlink="http://www.w3.org/1999/xlink" width="20pt" height="20pt" viewBox="0 0 20 20" version="1.1">
<defs>
<filter id="alpha" filterUnits="objectBoundingBox" x="0%" y="0%" width="100%" height="100%">
  <feColorMatrix type="matrix" in="SourceGraphic" values="0 0 0 0 1 0 0 0 0 1 0 0 0 0 1 0 0 0 1 0"/>
</filter>
<mask id="mask0">
  <g filter="url(#alpha)">
<rect x="0" y="0" width="20" height="20" style="fill:rgb(0%,0%,0%);fill-opacity:0.368627;stroke:none;"/>
  </g>
</mask>
<clipPath id="clip1">
  <rect x="0" y="0" width="20" height="20"/>
</clipPath>
<g id="surface5" clip-path="url(#clip1)">
<path style=" stroke:none;fill-rule:nonzero;fill:rgb(17.647059%,27.45098%,36.078431%);fill-opacity:1;" d="M 20 10.070312 L 15.722656 5.933594 L 12.710938 8.210938 L 10.792969 5.933594 L 6.472656 8.335938 L 6.472656 11.59375 L 7.8125 14.066406 L 13.046875 19.527344 C 17.058594 18.242188 19.96875 14.5 20 10.070312 Z M 20 10.070312 "/>
</g>
</defs>
<g id="surface1">
<path style=" stroke:none;fill-rule:nonzero;fill:rgb(65.882353%,26.27451%,26.27451%);fill-opacity:1;" d="M 20 10 C 20 15.523438 15.523438 20 10 20 C 4.476562 20 0 15.523438 0 10 C 0 4.476562 4.476562 0 10 0 C 15.523438 0 20 4.476562 20 10 Z M 20 10 "/>
<use xlink:href="#surface5" mask="url(#mask0)"/>
<path style=" stroke:none;fill-rule:nonzero;fill:rgb(100%,100%,100%);fill-opacity:1;" d="M 12.746094 5.933594 L 15.722656 5.933594 L 12.1875 10 L 15.722656 14.066406 L 12.746094 14.066406 L 9.207031 10 Z M 12.746094 5.933594 "/>
<path style=" stroke:none;fill-rule:nonzero;fill:rgb(100%,100%,100%);fill-opacity:1;" d="M 7.8125 5.933594 L 10.792969 5.933594 L 7.253906 10 L 10.792969 14.066406 L 7.8125 14.066406 L 4.277344 10 Z M 7.8125 5.933594 "/>
</g>
</svg>
