<?xml version="1.0"?>
<svg xmlns="http://www.w3.org/2000/svg" height="512px" viewBox="0 -10 512 512" width="512px" class=""><g><path d="m512 124.878906h-512v-62.4375c0-11.496094 9.316406-20.8125 20.8125-20.8125h470.375c11.496094 0 20.8125 9.316406 20.8125 20.8125zm0 0" fill="#f76c57" data-original="#F76C57" class="" style="fill:#F01D20" data-old_color="#f76c57"/><path d="m491.257812 41.765625h-17.632812c11.457031 0 20.742188 9.285156 20.742188 20.742187v62.234376h17.632812v-62.234376c0-11.457031-9.285156-20.742187-20.742188-20.742187zm0 0" fill="#e5554e" data-original="#E5554E" class="active-path" style="fill:#D32022" data-old_color="#e5554e"/><path d="m491.1875 491.1875h-470.375c-11.496094 0-20.8125-9.320312-20.8125-20.8125v-345.496094h512v345.496094c0 11.492188-9.316406 20.8125-20.8125 20.8125zm0 0" fill="#e6e6e6" data-original="#E6E6E6" class=""/><path d="m0 124.878906v15.609375h481.820312c6.898438 0 12.488282 5.589844 12.488282 12.488281v317.398438c0 11.492188-9.316406 20.8125-20.8125 20.8125h17.691406c11.496094 0 20.8125-9.320312 20.8125-20.8125v-345.496094zm0 0" fill="#cdcdcd" data-original="#CDCDCD" class=""/><path d="m470.375 150.511719h-428.75c-9.996094 0-18.132812 8.132812-18.132812 18.132812v280.917969c0 10 8.136718 18.132812 18.132812 18.132812h428.746094c10 0 18.136718-8.132812 18.136718-18.132812v-280.917969c0-10-8.136718-18.132812-18.132812-18.132812zm2.679688 18.132812v132.730469h-131.28125v-135.410156h128.601562c1.476562 0 2.679688 1.199218 2.679688 2.679687zm-287.375 132.734375v-135.414062h140.644531v135.410156h-140.644531zm140.640624 15.449219v135.414063h-140.640624v-135.414063zm-284.695312-150.863281h128.601562v135.410156h-131.28125v-132.730469c0-1.480469 1.203126-2.679687 2.679688-2.679687zm-2.679688 283.597656v-132.734375h131.28125v135.414063h-128.601562c-1.476562 0-2.679688-1.203126-2.679688-2.679688zm431.429688 2.679688h-128.601562v-135.414063h131.28125v132.734375c0 1.476562-1.203126 2.679688-2.679688 2.679688zm0 0" fill="#cdcdcd" data-original="#CDCDCD" class=""/><g fill="#e6e6e6"><path d="m78.050781 83.253906h-14.570312c-5.746094 0-10.40625-4.660156-10.40625-10.40625v-62.441406c0-5.746094 4.65625-10.40625 10.40625-10.40625h14.570312c5.746094 0 10.40625 4.660156 10.40625 10.40625v62.441406c-.003906 5.746094-4.660156 10.40625-10.40625 10.40625zm0 0" data-original="#E6E6E6" class=""/><path d="m263.285156 83.253906h-14.570312c-5.746094 0-10.40625-4.660156-10.40625-10.40625v-62.441406c0-5.746094 4.660156-10.40625 10.40625-10.40625h14.570312c5.746094 0 10.40625 4.660156 10.40625 10.40625v62.441406c0 5.746094-4.660156 10.40625-10.40625 10.40625zm0 0" data-original="#E6E6E6" class=""/><path d="m170.667969 83.253906h-14.570313c-5.746094 0-10.40625-4.660156-10.40625-10.40625v-62.441406c0-5.746094 4.660156-10.40625 10.40625-10.40625h14.570313c5.746093 0 10.40625 4.660156 10.40625 10.40625v62.441406c0 5.746094-4.660157 10.40625-10.40625 10.40625zm0 0" data-original="#E6E6E6" class=""/><path d="m433.949219 83.253906h14.570312c5.746094 0 10.40625-4.660156 10.40625-10.40625v-62.441406c0-5.746094-4.660156-10.40625-10.40625-10.40625h-14.570312c-5.746094 0-10.40625 4.660156-10.40625 10.40625v62.441406c.003906 5.746094 4.660156 10.40625 10.40625 10.40625zm0 0" data-original="#E6E6E6" class=""/></g><path d="m448.519531 0h-13.527343c5.746093 0 10.40625 4.660156 10.40625 10.40625v62.441406c0 5.746094-4.660157 10.40625-10.40625 10.40625h13.527343c5.746094 0 10.40625-4.660156 10.40625-10.40625v-62.441406c0-5.746094-4.65625-10.40625-10.40625-10.40625zm0 0" fill="#cdcdcd" data-original="#CDCDCD" class=""/><path d="m341.332031 83.253906h14.570313c5.746094 0 10.40625-4.660156 10.40625-10.40625v-62.441406c0-5.746094-4.660156-10.40625-10.40625-10.40625h-14.570313c-5.746093 0-10.40625 4.660156-10.40625 10.40625v62.441406c0 5.746094 4.660157 10.40625 10.40625 10.40625zm0 0" fill="#e6e6e6" data-original="#E6E6E6" class=""/><path d="m355.902344 0h-13.527344c5.746094 0 10.40625 4.660156 10.40625 10.40625v62.441406c0 5.746094-4.660156 10.40625-10.40625 10.40625h13.527344c5.746094 0 10.40625-4.660156 10.40625-10.40625v-62.441406c0-5.746094-4.660156-10.40625-10.40625-10.40625zm0 0" fill="#cdcdcd" data-original="#CDCDCD" class=""/><path d="m263.285156 0h-13.527344c5.746094 0 10.40625 4.660156 10.40625 10.40625v62.441406c0 5.746094-4.660156 10.40625-10.40625 10.40625h13.527344c5.746094 0 10.40625-4.660156 10.40625-10.40625v-62.441406c0-5.746094-4.660156-10.40625-10.40625-10.40625zm0 0" fill="#cdcdcd" data-original="#CDCDCD" class=""/><path d="m170.667969 0h-13.527344c5.746094 0 10.40625 4.660156 10.40625 10.40625v62.441406c0 5.746094-4.660156 10.40625-10.40625 10.40625h13.527344c5.746093 0 10.40625-4.660156 10.40625-10.40625v-62.441406c0-5.746094-4.660157-10.40625-10.40625-10.40625zm0 0" fill="#cdcdcd" data-original="#CDCDCD" class=""/><path d="m78.050781 0h-13.53125c5.746094 0 10.40625 4.660156 10.40625 10.40625v62.441406c0 5.746094-4.65625 10.40625-10.40625 10.40625h13.527344c5.75 0 10.40625-4.660156 10.40625-10.40625v-62.441406c0-5.746094-4.65625-10.40625-10.402344-10.40625zm0 0" fill="#cdcdcd" data-original="#CDCDCD" class=""/><path d="m412.984375 190.453125 9.75 19.761719c.820313 1.660156 2.40625 2.8125 4.238281 3.078125l21.804688 3.167969c4.617187.671874 6.460937 6.34375 3.117187 9.601562l-15.777343 15.378906c-1.324219 1.292969-1.929688 3.15625-1.617188 4.980469l3.726562 21.714844c.789063 4.597656-4.039062 8.105469-8.167968 5.933593l-19.503906-10.25c-1.640626-.863281-3.597657-.863281-5.238282 0l-19.5 10.25c-4.132812 2.171876-8.957031-1.335937-8.167968-5.933593l3.722656-21.714844c.316406-1.824219-.289063-3.6875-1.617188-4.980469l-15.777344-15.378906c-3.339843-3.257812-1.496093-8.929688 3.121094-9.601562l21.804688-3.167969c1.832031-.265625 3.417968-1.417969 4.238281-3.078125l9.75-19.761719c2.0625-4.179687 8.027344-4.179687 10.09375 0zm0 0" fill="#ffe046" data-original="#FFE046" class=""/><path d="m451.894531 226.0625c3.339844-3.257812 1.496094-8.929688-3.121093-9.601562l-18.308594-2.660157c-4.753906 20.414063-23.046875 35.625-44.90625 35.625-1.574219 0-3.128906-.082031-4.664063-.234375l-3.25 18.949219c-.789062 4.597656 4.039063 8.105469 8.167969 5.933594l19.503906-10.253907c1.636719-.859374 3.597656-.859374 5.238282 0l19.5 10.253907c4.132812 2.171875 8.957031-1.335938 8.167968-5.933594l-3.726562-21.714844c-.3125-1.828125.292968-3.691406 1.621094-4.984375zm0 0" fill="#ffd508" data-original="#FFD508" class=""/></g> </svg>
