<?xml version="1.0"?>
<svg xmlns="http://www.w3.org/2000/svg" xmlns:xlink="http://www.w3.org/1999/xlink" version="1.1" id="Capa_1" x="0px" y="0px" width="512px" height="512px" viewBox="0 0 31.312 31.312" style="enable-background:new 0 0 31.312 31.312;" xml:space="preserve"><g><g>
	<g>
		<rect x="23.695" y="15.249" width="5.052" height="1.878" data-original="#000000" class="active-path" data-old_color="#000000" fill="#0663FF"/>
		<polygon points="2.931,0.462 2.931,3.415 4.221,3.017 4.221,1.751 30.021,1.751 30.021,18.198 9.49,18.198 9.423,19.489     31.312,19.489 31.312,0.462   " data-original="#000000" class="active-path" data-old_color="#000000" fill="#0663FF"/>
		<circle cx="4.983" cy="7.525" r="3.822" data-original="#000000" class="active-path" data-old_color="#000000" fill="#0663FF"/>
		<path d="M8.229,29.103v-6.802v-0.642v-0.87H8.47l0.355-6.905l6.591-3.415l-0.3-0.578l0.668-0.462    c0.145,0.663,0.407,1.28,0.789,1.816c0.075,0.107,0.155,0.212,0.239,0.313c0.91,1.091,2.274,1.79,3.803,1.798    c0.006,0,0.012,0.001,0.018,0.001c0.001,0,0.004,0,0.006,0s0.004,0,0.006,0c1.539,0,2.918-0.701,3.834-1.799    c0.082-0.1,0.162-0.206,0.238-0.313c0.576-0.814,0.916-1.806,0.916-2.877c0-1.07-0.34-2.063-0.916-2.876    c-0.076-0.107-0.154-0.212-0.238-0.313c-0.916-1.099-2.295-1.8-3.834-1.8c-0.002,0-0.004,0-0.006,0s-0.005,0-0.006,0    c-0.006,0-0.012,0.001-0.018,0.001c-1.527,0.008-2.895,0.708-3.803,1.799c-0.084,0.101-0.164,0.206-0.239,0.313    c-0.577,0.812-0.917,1.806-0.917,2.876c0,0.209,0.022,0.411,0.048,0.613l-0.038-0.057l-0.774,0.533l-0.342-0.66l-6.025,3.122    h-2.15l-1.457,1.69l-1.409-1.69L0.41,12.498l-0.197,6.866h1.313l0.07,1.426h0.2v0.87v0.642v6.803H1.533L0,29.437v1.414h1.305    l1.524-0.25l0.015,0.25H4.53v-1.576v-0.17v-6.803h0.961v6.803v0.17v1.576H7.18l0.014-0.25l1.523,0.25h1.306v-1.414l-1.534-0.334    H8.229z M22.066,12.722c0.466-0.444,0.853-1.098,1.117-1.885c0.359,0.133,0.683,0.294,0.961,0.476    C23.602,11.958,22.887,12.454,22.066,12.722z M24.387,11c-0.314-0.211-0.682-0.396-1.087-0.546    c0.146-0.53,0.236-1.108,0.263-1.717h1.646C25.143,9.575,24.846,10.35,24.387,11z M25.223,8.327H23.57    c-0.004-0.729-0.1-1.42-0.271-2.043c0.405-0.151,0.771-0.334,1.087-0.545C24.904,6.473,25.214,7.365,25.223,8.327z M24.146,5.426    c-0.278,0.183-0.603,0.343-0.963,0.476c-0.267-0.787-0.65-1.441-1.117-1.885C22.887,4.285,23.604,4.78,24.146,5.426z M20.85,3.808    c0.83,0.128,1.547,0.989,1.953,2.22c-0.587,0.174-1.248,0.279-1.953,0.296V3.808z M20.85,6.733    c0.742-0.017,1.441-0.131,2.066-0.32c0.152,0.582,0.241,1.229,0.246,1.914H20.85V6.733z M20.85,8.737h2.305    c-0.024,0.564-0.107,1.1-0.236,1.589c-0.625-0.189-1.325-0.304-2.068-0.322V8.737L20.85,8.737z M20.85,10.414    c0.705,0.017,1.367,0.122,1.955,0.296c-0.408,1.232-1.125,2.092-1.955,2.22V10.414z M16.081,8.737h1.621    c0.026,0.612,0.12,1.194,0.265,1.726c-0.396,0.149-0.754,0.33-1.062,0.537C16.443,10.35,16.146,9.575,16.081,8.737z     M17.145,11.312c0.272-0.179,0.59-0.336,0.939-0.468c0.264,0.776,0.645,1.422,1.104,1.865    C18.382,12.439,17.68,11.948,17.145,11.312z M20.439,12.934c-0.84-0.115-1.564-0.977-1.977-2.217    c0.592-0.179,1.264-0.286,1.977-0.303V12.934z M20.439,10.004c-0.752,0.018-1.461,0.135-2.09,0.328    c-0.131-0.49-0.213-1.028-0.238-1.596h2.328V10.004z M20.439,8.327h-2.336c0.004-0.688,0.094-1.337,0.248-1.92    c0.629,0.193,1.338,0.31,2.088,0.327V8.327z M20.439,3.804v2.52c-0.713-0.018-1.385-0.125-1.976-0.302    C18.876,4.782,19.602,3.92,20.439,3.804z M19.188,4.03c-0.459,0.441-0.84,1.088-1.104,1.864c-0.352-0.131-0.668-0.289-0.939-0.468    C17.68,4.79,18.382,4.3,19.188,4.03z M16.902,5.738c0.311,0.208,0.668,0.389,1.063,0.537c-0.171,0.626-0.269,1.32-0.271,2.051    h-1.629C16.074,7.365,16.385,6.473,16.902,5.738z" data-original="#000000" class="active-path" data-old_color="#000000" fill="#0663FF"/>
	</g>
</g></g> </svg>
