<?xml version="1.0" encoding="iso-8859-1"?>
<!-- Generator: Adobe Illustrator 16.0.0, SVG Export Plug-In . SVG Version: 6.00 Build 0)  -->
<!DOCTYPE svg PUBLIC "-//W3C//DTD SVG 1.1//EN" "http://www.w3.org/Graphics/SVG/1.1/DTD/svg11.dtd">
<svg version="1.1" id="Capa_1" xmlns="http://www.w3.org/2000/svg" xmlns:xlink="http://www.w3.org/1999/xlink" x="0px" y="0px"
	 width="585.225px" height="585.225px" viewBox="0 0 585.225 585.225" style="enable-background:new 0 0 585.225 585.225;"
	 xml:space="preserve">
<g>
	<g>
		<path d="M321.3,491.513v93.712l28.688-28.688l28.688,28.688v-93.712c-9.562,3.825-19.125,5.737-28.688,5.737
			S330.862,495.338,321.3,491.513z"/>
		<circle cx="349.987" cy="430.312" r="47.812"/>
		<path d="M378.675,133.875H474.3L359.55,0v114.75C359.55,126.225,369.112,133.875,378.675,133.875z"/>
		<path d="M340.425,114.75V0h-191.25c-21.038,0-38.25,17.212-38.25,38.25v439.875c0,21.037,17.212,38.25,38.25,38.25h153v-40.162
			c-11.475-11.476-19.125-28.688-19.125-45.9c0-36.338,30.6-66.938,66.938-66.938s66.938,30.6,66.938,66.938
			c0,19.125-7.65,34.425-19.125,45.9v40.162h38.25c21.037,0,38.25-17.213,38.25-38.25V153h-95.625
			C357.638,153,340.425,135.788,340.425,114.75z M168.3,76.5h133.875v19.125H168.3V76.5z M168.3,133.875h133.875V153H168.3V133.875z
			 M416.925,325.125H168.3V306h248.625V325.125z M416.925,267.75H168.3v-19.125h248.625V267.75z M416.925,210.375H168.3V191.25
			h248.625V210.375z"/>
	</g>
</g>
<g>
</g>
<g>
</g>
<g>
</g>
<g>
</g>
<g>
</g>
<g>
</g>
<g>
</g>
<g>
</g>
<g>
</g>
<g>
</g>
<g>
</g>
<g>
</g>
<g>
</g>
<g>
</g>
<g>
</g>
</svg>
