<?xml version="1.0" encoding="UTF-8"?>
<svg xmlns="http://www.w3.org/2000/svg" xmlns:xlink="http://www.w3.org/1999/xlink" width="20pt" height="20pt" viewBox="0 0 20 20" version="1.1">
<g id="surface1">
<path style=" stroke:none;fill-rule:nonzero;fill:rgb(100%,100%,100%);fill-opacity:1;" d="M 20 9.742188 C 20 15.125 15.605469 19.484375 10.183594 19.484375 C 8.460938 19.484375 6.84375 19.042969 5.4375 18.273438 L 0 20 L 1.773438 14.773438 C 0.878906 13.304688 0.363281 11.582031 0.363281 9.742188 C 0.363281 4.363281 4.757812 0 10.183594 0 C 15.605469 0 20 4.363281 20 9.742188 Z M 10.183594 1.550781 C 5.628906 1.550781 1.925781 5.226562 1.925781 9.742188 C 1.925781 11.535156 2.511719 13.195312 3.5 14.542969 L 2.46875 17.585938 L 5.640625 16.578125 C 6.945312 17.433594 8.503906 17.933594 10.183594 17.933594 C 14.734375 17.933594 18.4375 14.257812 18.4375 9.742188 C 18.4375 5.226562 14.734375 1.550781 10.183594 1.550781 Z M 15.140625 11.984375 C 15.078125 11.886719 14.917969 11.828125 14.679688 11.707031 C 14.4375 11.589844 13.253906 11.011719 13.035156 10.929688 C 12.8125 10.851562 12.652344 10.8125 12.492188 11.050781 C 12.332031 11.289062 11.871094 11.828125 11.730469 11.984375 C 11.589844 12.144531 11.449219 12.164062 11.207031 12.046875 C 10.96875 11.925781 10.191406 11.675781 9.273438 10.863281 C 8.558594 10.226562 8.074219 9.445312 7.933594 9.207031 C 7.792969 8.96875 7.917969 8.839844 8.039062 8.722656 C 8.148438 8.613281 8.28125 8.441406 8.402344 8.300781 C 8.523438 8.164062 8.5625 8.0625 8.640625 7.902344 C 8.722656 7.746094 8.683594 7.605469 8.621094 7.484375 C 8.5625 7.367188 8.078125 6.191406 7.878906 5.714844 C 7.679688 5.234375 7.480469 5.316406 7.339844 5.316406 C 7.199219 5.316406 7.039062 5.292969 6.875 5.292969 C 6.714844 5.292969 6.457031 5.355469 6.234375 5.59375 C 6.015625 5.832031 5.394531 6.410156 5.394531 7.585938 C 5.394531 8.761719 6.253906 9.894531 6.375 10.054688 C 6.496094 10.214844 8.039062 12.703125 10.488281 13.660156 C 12.933594 14.617188 12.933594 14.296875 13.375 14.257812 C 13.816406 14.21875 14.796875 13.679688 15 13.121094 C 15.199219 12.5625 15.199219 12.085938 15.140625 11.984375 Z M 15.140625 11.984375 "/>
</g>
</svg>
